<?xml version="1.0" standalone="no"?>
<!DOCTYPE svg PUBLIC "-//W3C//DTD SVG 20010904//EN"
 "http://www.w3.org/TR/2001/REC-SVG-20010904/DTD/svg10.dtd">
<svg version="1.0" xmlns="http://www.w3.org/2000/svg"
 width="410.000000pt" height="410.000000pt" viewBox="0 0 410.000000 410.000000"
 preserveAspectRatio="xMidYMid meet">
<metadata>
Created by potrace 1.11, written by Peter Selinger 2001-2013
</metadata>
<g transform="translate(0.000000,410.000000) scale(0.100000,-0.100000)"
fill="#000000" stroke="none">
<path d="M1113 3644 l-100 -106 8 -41 c7 -39 18 -107 24 -152 2 -11 6 -36 9
-55 17 -96 26 -149 31 -185 4 -22 8 -47 10 -55 3 -8 9 -46 15 -85 10 -73 14
-96 30 -180 5 -27 12 -66 14 -85 5 -32 41 -252 51 -310 24 -142 36 -209 39
-225 4 -21 14 -87 22 -140 2 -16 9 -52 14 -80 5 -27 11 -66 14 -85 3 -19 24
-143 46 -275 23 -132 43 -256 46 -275 3 -19 13 -84 24 -145 18 -105 22 -126
35 -205 3 -19 8 -42 10 -50 2 -8 6 -35 9 -60 3 -25 8 -56 11 -70 3 -14 8 -45
11 -70 3 -25 7 -52 9 -60 4 -15 13 -64 20 -110 6 -39 35 -212 41 -245 3 -16 7
-37 8 -45 4 -19 122 -25 123 -6 2 23 12 86 17 103 3 10 7 29 10 43 2 14 15 79
29 145 14 66 28 131 31 145 2 14 18 90 35 170 18 80 34 158 37 174 3 16 18 93
35 170 17 78 37 175 45 216 20 100 20 98 60 288 19 92 48 232 65 312 16 80 32
152 34 161 10 32 -20 46 -94 47 -64 0 -142 23 -141 41 0 3 70 143 154 311
l154 305 50 3 50 3 162 -322 c103 -204 158 -325 152 -331 -5 -5 -58 -10 -116
-11 -128 -1 -131 -3 -111 -97 7 -36 16 -81 19 -100 3 -19 13 -73 21 -120 9
-47 20 -109 25 -138 5 -30 11 -61 14 -70 3 -10 7 -35 11 -57 3 -22 12 -76 20
-120 9 -44 20 -105 25 -135 5 -30 19 -102 29 -160 11 -58 25 -132 31 -165 5
-33 12 -71 15 -85 3 -14 9 -50 15 -80 5 -30 12 -68 15 -85 3 -16 12 -66 20
-110 8 -44 17 -93 20 -110 3 -16 12 -68 20 -115 9 -47 17 -92 20 -100 2 -8 7
-35 10 -60 11 -86 3 -81 132 -78 97 3 117 6 118 19 2 8 6 56 9 105 4 49 9 107
11 129 3 22 7 76 10 120 3 44 7 98 10 120 2 22 7 76 10 120 3 44 8 100 10 125
2 25 6 81 10 125 3 44 8 103 10 130 2 28 7 84 10 125 3 41 8 91 10 110 2 19 7
80 10 135 4 55 8 111 10 125 2 14 6 66 10 115 3 50 8 108 10 130 3 22 7 78 10
125 5 80 8 115 20 243 3 28 7 81 10 117 11 150 16 218 20 260 3 25 7 77 10
115 5 77 13 173 20 250 2 28 7 84 10 125 4 41 8 98 10 125 3 28 7 88 10 134
l6 84 -101 103 -102 103 -182 -179 c-394 -389 -551 -540 -561 -541 -84 -10
-74 -16 -308 165 -122 94 -280 216 -352 270 -71 55 -132 102 -135 105 -4 5
-82 64 -225 172 -7 5 -51 -34 -112 -97z"/>
</g>
</svg>
